<svg width="607" height="72" viewBox="0 0 607 72" fill="none" xmlns="http://www.w3.org/2000/svg">
<path d="M3.77273 24H0.818182L9.36364 0.727272H12.2727L20.8182 24H17.8636L10.9091 4.40909H10.7273L3.77273 24ZM4.86364 14.9091H16.7727V17.4091H4.86364V14.9091ZM24.4432 24V0.727272H32.3068C34.1326 0.727272 35.625 1.05682 36.7841 1.71591C37.9508 2.36742 38.8144 3.25 39.375 4.36364C39.9356 5.47727 40.2159 6.7197 40.2159 8.09091C40.2159 9.46212 39.9356 10.7083 39.375 11.8295C38.822 12.9508 37.9659 13.8447 36.8068 14.5114C35.6477 15.1705 34.1629 15.5 32.3523 15.5H26.7159V13H32.2614C33.5114 13 34.5152 12.7841 35.2727 12.3523C36.0303 11.9205 36.5795 11.3371 36.9205 10.6023C37.2689 9.85985 37.4432 9.02273 37.4432 8.09091C37.4432 7.15909 37.2689 6.32576 36.9205 5.59091C36.5795 4.85606 36.0265 4.2803 35.2614 3.86364C34.4962 3.43939 33.4811 3.22727 32.2159 3.22727H27.2614V24H24.4432ZM46.1193 0.727272L52.1193 10.4091H52.3011L58.3011 0.727272H61.6193L54.3011 12.3636L61.6193 24H58.3011L52.3011 14.5H52.1193L46.1193 24H42.8011L50.3011 12.3636L42.8011 0.727272H46.1193ZM65.2869 0.727272H68.0597V19.0455H68.2869L81.0142 0.727272H83.7415V24H80.9233V5.72727H80.696L68.0142 24H65.2869V0.727272ZM89.3807 24V0.727272H97.517C99.1383 0.727272 100.475 1.00758 101.528 1.56818C102.581 2.12121 103.366 2.86742 103.881 3.80682C104.396 4.73864 104.653 5.77273 104.653 6.90909C104.653 7.90909 104.475 8.73485 104.119 9.38636C103.771 10.0379 103.309 10.553 102.733 10.9318C102.165 11.3106 101.547 11.5909 100.881 11.7727V12C101.593 12.0455 102.309 12.2955 103.028 12.75C103.748 13.2045 104.35 13.8561 104.835 14.7045C105.32 15.553 105.562 16.5909 105.562 17.8182C105.562 18.9848 105.297 20.0341 104.767 20.9659C104.237 21.8977 103.4 22.6364 102.256 23.1818C101.112 23.7273 99.6231 24 97.7898 24H89.3807ZM92.1989 21.5H97.7898C99.6307 21.5 100.938 21.1439 101.71 20.4318C102.491 19.7121 102.881 18.8409 102.881 17.8182C102.881 17.0303 102.68 16.303 102.278 15.6364C101.877 14.9621 101.305 14.4242 100.562 14.0227C99.8201 13.6136 98.9413 13.4091 97.9261 13.4091H92.1989V21.5ZM92.1989 10.9545H97.4261C98.2746 10.9545 99.0398 10.7879 99.7216 10.4545C100.411 10.1212 100.956 9.65151 101.358 9.04545C101.767 8.43939 101.972 7.72727 101.972 6.90909C101.972 5.88636 101.616 5.01894 100.903 4.30682C100.191 3.58712 99.0625 3.22727 97.517 3.22727H92.1989V10.9545ZM121.875 24V26.5H107.33V24H121.875ZM136.344 24V26.5H121.798V24H136.344ZM150.812 24V26.5H136.267V24H150.812ZM165.281 24V26.5H150.736V24H165.281ZM179.75 24V26.5H165.205V24H179.75ZM194.219 24V26.5H179.673V24H194.219ZM208.688 24V26.5H194.142V24H208.688ZM223.156 24V26.5H208.611V24H223.156ZM237.625 24V26.5H223.08V24H237.625ZM252.094 24V26.5H237.548V24H252.094ZM266.562 24V26.5H252.017V24H266.562ZM281.031 24V26.5H266.486V24H281.031ZM295.5 24V26.5H280.955V24H295.5ZM309.969 24V26.5H295.423V24H309.969ZM324.438 24V26.5H309.892V24H324.438ZM338.906 24V26.5H324.361V24H338.906ZM353.375 24V26.5H338.83V24H353.375ZM356.162 24V0.727272H358.98V11.0909H371.389V0.727272H374.207V24H371.389V13.5909H358.98V24H356.162ZM379.849 24V0.727272H393.895V3.22727H382.668V11.0909H393.168V13.5909H382.668V21.5H394.077V24H379.849ZM406.429 24.3182C404.929 24.3182 403.592 24.0606 402.418 23.5455C401.251 23.0303 400.323 22.3144 399.634 21.3977C398.952 20.4735 398.58 19.4015 398.52 18.1818H401.384C401.444 18.9318 401.702 19.5795 402.156 20.125C402.611 20.6629 403.205 21.0795 403.94 21.375C404.675 21.6705 405.49 21.8182 406.384 21.8182C407.384 21.8182 408.27 21.6439 409.043 21.2955C409.815 20.947 410.421 20.4621 410.861 19.8409C411.3 19.2197 411.52 18.5 411.52 17.6818C411.52 16.8258 411.308 16.072 410.884 15.4205C410.459 14.7614 409.838 14.2462 409.02 13.875C408.202 13.5038 407.202 13.3182 406.02 13.3182H404.156V10.8182H406.02C406.944 10.8182 407.755 10.6515 408.452 10.3182C409.156 9.98485 409.705 9.51515 410.099 8.90909C410.501 8.30303 410.702 7.59091 410.702 6.77273C410.702 5.98485 410.527 5.29924 410.179 4.71591C409.83 4.13257 409.338 3.67803 408.702 3.35227C408.073 3.02651 407.33 2.86364 406.474 2.86364C405.671 2.86364 404.914 3.01136 404.202 3.30682C403.497 3.5947 402.921 4.01515 402.474 4.56818C402.027 5.11364 401.785 5.77273 401.747 6.54545H399.02C399.065 5.32576 399.433 4.25757 400.122 3.34091C400.812 2.41667 401.713 1.69697 402.827 1.18182C403.948 0.666666 405.179 0.40909 406.52 0.40909C407.959 0.40909 409.194 0.700757 410.224 1.28409C411.255 1.85985 412.046 2.62121 412.599 3.56818C413.152 4.51515 413.429 5.53788 413.429 6.63636C413.429 7.94697 413.084 9.06439 412.395 9.98864C411.713 10.9129 410.785 11.553 409.611 11.9091V12.0909C411.08 12.3333 412.228 12.9583 413.054 13.9659C413.88 14.9659 414.293 16.2045 414.293 17.6818C414.293 18.947 413.948 20.0833 413.259 21.0909C412.577 22.0909 411.645 22.8788 410.463 23.4545C409.281 24.0303 407.937 24.3182 406.429 24.3182ZM420.304 24H417.349L425.895 0.727272H428.804L437.349 24H434.395L427.44 4.40909H427.259L420.304 24ZM421.395 14.9091H433.304V17.4091H421.395V14.9091ZM440.974 24V0.727272H449.111C450.732 0.727272 452.069 1.00758 453.122 1.56818C454.175 2.12121 454.959 2.86742 455.474 3.80682C455.99 4.73864 456.247 5.77273 456.247 6.90909C456.247 7.90909 456.069 8.73485 455.713 9.38636C455.365 10.0379 454.902 10.553 454.327 10.9318C453.759 11.3106 453.141 11.5909 452.474 11.7727V12C453.187 12.0455 453.902 12.2955 454.622 12.75C455.342 13.2045 455.944 13.8561 456.429 14.7045C456.914 15.553 457.156 16.5909 457.156 17.8182C457.156 18.9848 456.891 20.0341 456.361 20.9659C455.83 21.8977 454.993 22.6364 453.849 23.1818C452.705 23.7273 451.217 24 449.384 24H440.974ZM443.793 21.5H449.384C451.224 21.5 452.531 21.1439 453.304 20.4318C454.084 19.7121 454.474 18.8409 454.474 17.8182C454.474 17.0303 454.274 16.303 453.872 15.6364C453.471 14.9621 452.899 14.4242 452.156 14.0227C451.414 13.6136 450.535 13.4091 449.52 13.4091H443.793V21.5ZM443.793 10.9545H449.02C449.868 10.9545 450.634 10.7879 451.315 10.4545C452.005 10.1212 452.55 9.65151 452.952 9.04545C453.361 8.43939 453.565 7.72727 453.565 6.90909C453.565 5.88636 453.209 5.01894 452.497 4.30682C451.785 3.58712 450.656 3.22727 449.111 3.22727H443.793V10.9545ZM461.787 0.727272H464.56V19.0455H464.787L477.514 0.727272H480.241V24H477.423V5.72727H477.196L464.514 24H461.787V0.727272ZM504.608 8H501.79C501.623 7.18939 501.331 6.47727 500.915 5.86364C500.506 5.25 500.006 4.73485 499.415 4.31818C498.831 3.89394 498.184 3.57576 497.472 3.36364C496.759 3.15151 496.017 3.04545 495.244 3.04545C493.835 3.04545 492.559 3.40151 491.415 4.11364C490.278 4.82576 489.373 5.875 488.699 7.26136C488.032 8.64773 487.699 10.3485 487.699 12.3636C487.699 14.3788 488.032 16.0795 488.699 17.4659C489.373 18.8523 490.278 19.9015 491.415 20.6136C492.559 21.3258 493.835 21.6818 495.244 21.6818C496.017 21.6818 496.759 21.5758 497.472 21.3636C498.184 21.1515 498.831 20.8371 499.415 20.4205C500.006 19.9962 500.506 19.4773 500.915 18.8636C501.331 18.2424 501.623 17.5303 501.79 16.7273H504.608C504.396 17.9167 504.009 18.9811 503.449 19.9205C502.888 20.8598 502.191 21.6591 501.358 22.3182C500.525 22.9697 499.589 23.4659 498.551 23.8068C497.521 24.1477 496.419 24.3182 495.244 24.3182C493.259 24.3182 491.494 23.8333 489.949 22.8636C488.403 21.8939 487.188 20.5152 486.301 18.7273C485.415 16.9394 484.972 14.8182 484.972 12.3636C484.972 9.90909 485.415 7.78788 486.301 6C487.188 4.21212 488.403 2.83333 489.949 1.86364C491.494 0.893939 493.259 0.40909 495.244 0.40909C496.419 0.40909 497.521 0.579545 498.551 0.920454C499.589 1.26136 500.525 1.76136 501.358 2.42045C502.191 3.07197 502.888 3.86742 503.449 4.80682C504.009 5.73864 504.396 6.80303 504.608 8ZM509.162 0.727272H511.935V19.0455H512.162L524.889 0.727272H527.616V24H524.798V5.72727H524.571L511.889 24H509.162V0.727272ZM533.256 0.727272H536.619L544.528 20.0455H544.801L552.71 0.727272H556.074V24H553.438V6.31818H553.21L545.938 24H543.392L536.119 6.31818H535.892V24H533.256V0.727272ZM563.815 10.5H570.452C572.118 10.5 573.524 10.7727 574.668 11.3182C575.819 11.8636 576.69 12.6326 577.281 13.625C577.88 14.6174 578.179 15.7879 578.179 17.1364C578.179 18.4848 577.88 19.6742 577.281 20.7045C576.69 21.7348 575.819 22.5417 574.668 23.125C573.524 23.7083 572.118 24 570.452 24H561.724V0.727272H564.543V21.5455H570.452C571.512 21.5455 572.41 21.3333 573.145 20.9091C573.887 20.4773 574.448 19.9242 574.827 19.25C575.213 18.5682 575.406 17.8485 575.406 17.0909C575.406 15.9773 574.978 15.0189 574.122 14.2159C573.266 13.4053 572.043 13 570.452 13H563.815V10.5ZM583.27 0.727272V24H580.452V0.727272H583.27ZM590.276 0.727272L596.276 10.4091H596.457L602.457 0.727272H605.776L598.457 12.3636L605.776 24H602.457L596.457 14.5H596.276L590.276 24H586.957L594.457 12.3636L586.957 0.727272H590.276ZM119.818 66V42.7273H127.682C129.508 42.7273 131 43.0568 132.159 43.7159C133.326 44.3674 134.189 45.25 134.75 46.3636C135.311 47.4773 135.591 48.7197 135.591 50.0909C135.591 51.4621 135.311 52.7083 134.75 53.8295C134.197 54.9508 133.341 55.8447 132.182 56.5114C131.023 57.1705 129.538 57.5 127.727 57.5H122.091V55H127.636C128.886 55 129.89 54.7841 130.648 54.3523C131.405 53.9205 131.955 53.3371 132.295 52.6023C132.644 51.8598 132.818 51.0227 132.818 50.0909C132.818 49.1591 132.644 48.3258 132.295 47.5909C131.955 46.8561 131.402 46.2803 130.636 45.8636C129.871 45.4394 128.856 45.2273 127.591 45.2273H122.636V66H119.818ZM159.767 54.3636C159.767 56.8182 159.324 58.9394 158.438 60.7273C157.551 62.5152 156.335 63.8939 154.79 64.8636C153.244 65.8333 151.479 66.3182 149.494 66.3182C147.509 66.3182 145.744 65.8333 144.199 64.8636C142.653 63.8939 141.438 62.5152 140.551 60.7273C139.665 58.9394 139.222 56.8182 139.222 54.3636C139.222 51.9091 139.665 49.7879 140.551 48C141.438 46.2121 142.653 44.8333 144.199 43.8636C145.744 42.8939 147.509 42.4091 149.494 42.4091C151.479 42.4091 153.244 42.8939 154.79 43.8636C156.335 44.8333 157.551 46.2121 158.438 48C159.324 49.7879 159.767 51.9091 159.767 54.3636ZM157.04 54.3636C157.04 52.3485 156.703 50.6477 156.028 49.2614C155.362 47.875 154.456 46.8258 153.312 46.1136C152.176 45.4015 150.903 45.0455 149.494 45.0455C148.085 45.0455 146.809 45.4015 145.665 46.1136C144.528 46.8258 143.623 47.875 142.949 49.2614C142.282 50.6477 141.949 52.3485 141.949 54.3636C141.949 56.3788 142.282 58.0795 142.949 59.4659C143.623 60.8523 144.528 61.9015 145.665 62.6136C146.809 63.3258 148.085 63.6818 149.494 63.6818C150.903 63.6818 152.176 63.3258 153.312 62.6136C154.456 61.9015 155.362 60.8523 156.028 59.4659C156.703 58.0795 157.04 56.3788 157.04 54.3636ZM183.233 50H180.415C180.248 49.1894 179.956 48.4773 179.54 47.8636C179.131 47.25 178.631 46.7348 178.04 46.3182C177.456 45.8939 176.809 45.5758 176.097 45.3636C175.384 45.1515 174.642 45.0455 173.869 45.0455C172.46 45.0455 171.184 45.4015 170.04 46.1136C168.903 46.8258 167.998 47.875 167.324 49.2614C166.657 50.6477 166.324 52.3485 166.324 54.3636C166.324 56.3788 166.657 58.0795 167.324 59.4659C167.998 60.8523 168.903 61.9015 170.04 62.6136C171.184 63.3258 172.46 63.6818 173.869 63.6818C174.642 63.6818 175.384 63.5758 176.097 63.3636C176.809 63.1515 177.456 62.8371 178.04 62.4205C178.631 61.9962 179.131 61.4773 179.54 60.8636C179.956 60.2424 180.248 59.5303 180.415 58.7273H183.233C183.021 59.9167 182.634 60.9811 182.074 61.9205C181.513 62.8598 180.816 63.6591 179.983 64.3182C179.15 64.9697 178.214 65.4659 177.176 65.8068C176.146 66.1477 175.044 66.3182 173.869 66.3182C171.884 66.3182 170.119 65.8333 168.574 64.8636C167.028 63.8939 165.813 62.5152 164.926 60.7273C164.04 58.9394 163.597 56.8182 163.597 54.3636C163.597 51.9091 164.04 49.7879 164.926 48C165.813 46.2121 167.028 44.8333 168.574 43.8636C170.119 42.8939 171.884 42.4091 173.869 42.4091C175.044 42.4091 176.146 42.5795 177.176 42.9205C178.214 43.2614 179.15 43.7614 179.983 44.4205C180.816 45.072 181.513 45.8674 182.074 46.8068C182.634 47.7386 183.021 48.803 183.233 50ZM206.514 50H203.696C203.529 49.1894 203.238 48.4773 202.821 47.8636C202.412 47.25 201.912 46.7348 201.321 46.3182C200.738 45.8939 200.09 45.5758 199.378 45.3636C198.666 45.1515 197.923 45.0455 197.151 45.0455C195.741 45.0455 194.465 45.4015 193.321 46.1136C192.185 46.8258 191.279 47.875 190.605 49.2614C189.938 50.6477 189.605 52.3485 189.605 54.3636C189.605 56.3788 189.938 58.0795 190.605 59.4659C191.279 60.8523 192.185 61.9015 193.321 62.6136C194.465 63.3258 195.741 63.6818 197.151 63.6818C197.923 63.6818 198.666 63.5758 199.378 63.3636C200.09 63.1515 200.738 62.8371 201.321 62.4205C201.912 61.9962 202.412 61.4773 202.821 60.8636C203.238 60.2424 203.529 59.5303 203.696 58.7273H206.514C206.302 59.9167 205.916 60.9811 205.355 61.9205C204.795 62.8598 204.098 63.6591 203.264 64.3182C202.431 64.9697 201.495 65.4659 200.457 65.8068C199.427 66.1477 198.325 66.3182 197.151 66.3182C195.166 66.3182 193.401 65.8333 191.855 64.8636C190.31 63.8939 189.094 62.5152 188.207 60.7273C187.321 58.9394 186.878 56.8182 186.878 54.3636C186.878 51.9091 187.321 49.7879 188.207 48C189.094 46.2121 190.31 44.8333 191.855 43.8636C193.401 42.8939 195.166 42.4091 197.151 42.4091C198.325 42.4091 199.427 42.5795 200.457 42.9205C201.495 43.2614 202.431 43.7614 203.264 44.4205C204.098 45.072 204.795 45.8674 205.355 46.8068C205.916 47.7386 206.302 48.803 206.514 50ZM211.068 42.7273H213.841V61.0455H214.068L226.795 42.7273H229.523V66H226.705V47.7273H226.477L213.795 66H211.068V42.7273ZM235.162 42.7273H237.935V61.0455H238.162L250.889 42.7273H253.616V66H250.798V47.7273H250.571L237.889 66H235.162V42.7273ZM246.616 36.9091H249.116C249.116 38.1364 248.692 39.1402 247.844 39.9205C246.995 40.7008 245.844 41.0909 244.389 41.0909C242.957 41.0909 241.817 40.7008 240.969 39.9205C240.128 39.1402 239.707 38.1364 239.707 36.9091H242.207C242.207 37.5 242.37 38.0189 242.696 38.4659C243.029 38.9129 243.594 39.1364 244.389 39.1364C245.185 39.1364 245.753 38.9129 246.094 38.4659C246.442 38.0189 246.616 37.5 246.616 36.9091ZM277.983 50H275.165C274.998 49.1894 274.706 48.4773 274.29 47.8636C273.881 47.25 273.381 46.7348 272.79 46.3182C272.206 45.8939 271.559 45.5758 270.847 45.3636C270.134 45.1515 269.392 45.0455 268.619 45.0455C267.21 45.0455 265.934 45.4015 264.79 46.1136C263.653 46.8258 262.748 47.875 262.074 49.2614C261.407 50.6477 261.074 52.3485 261.074 54.3636C261.074 56.3788 261.407 58.0795 262.074 59.4659C262.748 60.8523 263.653 61.9015 264.79 62.6136C265.934 63.3258 267.21 63.6818 268.619 63.6818C269.392 63.6818 270.134 63.5758 270.847 63.3636C271.559 63.1515 272.206 62.8371 272.79 62.4205C273.381 61.9962 273.881 61.4773 274.29 60.8636C274.706 60.2424 274.998 59.5303 275.165 58.7273H277.983C277.771 59.9167 277.384 60.9811 276.824 61.9205C276.263 62.8598 275.566 63.6591 274.733 64.3182C273.9 64.9697 272.964 65.4659 271.926 65.8068C270.896 66.1477 269.794 66.3182 268.619 66.3182C266.634 66.3182 264.869 65.8333 263.324 64.8636C261.778 63.8939 260.563 62.5152 259.676 60.7273C258.79 58.9394 258.347 56.8182 258.347 54.3636C258.347 51.9091 258.79 49.7879 259.676 48C260.563 46.2121 261.778 44.8333 263.324 43.8636C264.869 42.8939 266.634 42.4091 268.619 42.4091C269.794 42.4091 270.896 42.5795 271.926 42.9205C272.964 43.2614 273.9 43.7614 274.733 44.4205C275.566 45.072 276.263 45.8674 276.824 46.8068C277.384 47.7386 277.771 48.803 277.983 50ZM296.219 66L288.219 55.3182H285.355V66H282.537V42.7273H285.355V52.8182H286.582L295.901 42.7273H299.264L289.855 52.9545L299.582 66H296.219ZM303.224 42.7273H305.997V61.0455H306.224L318.952 42.7273H321.679V66H318.861V47.7273H318.634L305.952 66H303.224V42.7273ZM328.682 42.7273L334.682 52.4091H334.864L340.864 42.7273H344.182L336.864 54.3636L344.182 66H340.864L334.864 56.5H334.682L328.682 66H325.364L332.864 54.3636L325.364 42.7273H328.682ZM359.531 66V68.5H344.986V66H359.531ZM374 66V68.5H359.455V66H374ZM388.469 66V68.5H373.923V66H388.469ZM402.938 66V68.5H388.392V66H402.938ZM417.406 66V68.5H402.861V66H417.406ZM431.875 66V68.5H417.33V66H431.875ZM446.344 66V68.5H431.798V66H446.344ZM460.812 66V68.5H446.267V66H460.812ZM475.281 66V68.5H460.736V66H475.281ZM489.75 66V68.5H475.205V66H489.75ZM492.537 42.7273H495.901L503.81 62.0455H504.082L511.991 42.7273H515.355V66H512.719V48.3182H512.491L505.219 66H502.673L495.401 48.3182H495.173V66H492.537V42.7273ZM521.006 66V42.7273H535.051V45.2273H523.824V53.0909H534.324V55.5909H523.824V63.5H535.233V66H521.006ZM538.131 71.6364V63.5H539.631C540.146 63.0303 540.631 62.3674 541.085 61.5114C541.547 60.6477 541.938 59.4962 542.256 58.0568C542.581 56.6098 542.797 54.7727 542.903 52.5455L543.403 42.7273H557.222V63.5H559.903V71.5909H557.222V66H540.812V71.6364H538.131ZM542.994 63.5H554.54V45.2273H545.949L545.585 52.5455C545.494 54.2424 545.335 55.7803 545.108 57.1591C544.881 58.5303 544.589 59.7462 544.233 60.8068C543.877 61.8598 543.464 62.7576 542.994 63.5ZM564.162 42.7273H566.935V61.0455H567.162L579.889 42.7273H582.616V66H579.798V47.7273H579.571L566.889 66H564.162V42.7273ZM589.21 66H586.256L594.801 42.7273H597.71L606.256 66H603.301L596.347 46.4091H596.165L589.21 66ZM590.301 56.9091H602.21V59.4091H590.301V56.9091Z" fill="#222530"/>
</svg>
